# xmcd
# 
# Track frame offsets:
#     150
#     23036
#     45922
# 
# Disc length: 836
# 
# Revision: 7
# Processed by: cddbd v1.5.2PL0 Copyright (c) Steve Scherf et al.
# Submitted via: fre:ac v1.1beta1pre5
# 
DISCID=15034203
DTITLE=KREVA - くればいいのに
DYEAR=2007
DGENRE=Hip-Hop
TTITLE0=くればいいのに feat.草野マサムネ・from SPITZ
TTITLE1=くればいいのに feat.草野マサムネ・from SPITZ(Single Edit Inst.)
TTITLE2=JUMP ON IT
EXTD=YEAR: 2007
EXTT0=
EXTT1=
EXTT2=
PLAYORDER=
